<svg width="254" height="244" viewBox="0 0 254 244" fill="none" xmlns="http://www.w3.org/2000/svg">
<path d="M232.462 0.0758826C234.733 -0.336344 236.253 0.976674 237.08 2.90549C239.044 7.47052 240.712 14.743 242.146 19.7355C259.217 79.2489 263.13 147.307 201.489 181.949C176.536 195.97 142.895 196.316 133.369 229.015C131.839 234.277 132.262 246.918 123.548 243.387C119.763 241.855 121.156 236.994 120.804 233.91C118.385 212.729 89.0855 210.597 72.6423 204.596C7.16535 180.708 -12.543 125.581 7.46637 60.6783C8.4051 57.6299 12.109 45.7822 13.9661 44.2656C15.2467 43.2223 16.6497 42.8813 18.1853 43.6396C30.0624 53.7468 43.2813 62.2102 57.6174 68.4292C68.9282 73.3403 80.9481 76.5109 92.0395 81.9208C100.31 64.5563 114.564 50.1437 131.232 40.6217C159.195 24.6517 193.995 24.1733 221.524 7.53159C223.692 6.21857 231.034 0.335433 232.457 0.0758826H232.462Z" fill="#A67134"/>
<path d="M232.462 0.0758826C234.733 -0.336344 236.253 0.976674 237.08 2.90549C239.044 7.47052 240.712 14.743 242.146 19.7355C259.217 79.2489 263.13 147.307 201.489 181.949C176.536 195.97 142.895 196.316 133.369 229.015C131.839 234.277 132.262 246.918 123.548 243.387C119.763 241.855 121.156 236.994 120.804 233.91C118.385 212.729 89.0855 210.597 72.6423 204.596C7.16535 180.708 -12.543 125.581 7.46637 60.6783C8.4051 57.6299 12.109 45.7822 13.9661 44.2656C15.2467 43.2223 16.6497 42.8813 18.1853 43.6396C30.0624 53.7468 43.2813 62.2102 57.6174 68.4292C68.9282 73.3403 80.9481 76.5109 92.0395 81.9208C100.31 64.5563 114.564 50.1437 131.232 40.6217C159.195 24.6517 193.995 24.1733 221.524 7.53159C223.692 6.21857 231.034 0.335433 232.457 0.0758826H232.462ZM137.711 118.573C140.9 114.823 143.282 110.461 146.395 106.629C161.292 88.2721 183.398 77.4219 199.964 60.8259C211.912 48.8561 220.56 34.3162 225.963 18.3157C196.046 36.362 158.455 35.8328 129.38 55.5586C117.911 63.34 108.177 73.778 102.044 86.267C116.268 93.8346 130.951 103.346 137.711 118.573ZM234.126 30.0209C232.554 29.7715 233.33 30.4535 233.1 31.2728C227.993 49.762 207.805 69.6812 193.041 81.4118C178.929 92.6234 163.481 101.484 152.292 116.085C150.466 118.472 143.548 128.721 143.318 131.093C143.088 133.464 145.042 139.739 145.344 142.757C146.813 157.358 143.594 172.651 139.364 186.652C137.38 193.227 134.772 199.604 132.599 206.108C148.262 185.603 174.511 183.746 195.688 172.097C235.248 150.34 246.115 110.273 241.197 67.4877C239.743 54.8359 236.325 42.52 234.115 30.0158L234.126 30.0209ZM128.007 186.769C132.869 169.639 136.941 151.811 132.053 134.141C121.916 97.4785 78.1676 90.1042 48.077 76.4295C38.0315 71.8644 28.6492 66.0678 18.8384 61.0702C17.0578 68.0068 14.8283 74.8722 13.4559 81.9208C2.98185 135.887 26.0676 175.583 77.2391 193.909C90.0294 198.489 103.672 200.774 115.6 207.553C116.457 208.042 121.033 211.487 121.38 211.197C118.192 191.685 112.692 173.038 101.172 156.804C87.407 137.403 68.9384 123.683 50.4391 109.194C48.9239 106.074 50.5361 103.204 54.1737 103.932C56.3726 104.369 63.658 109.403 66.0406 110.934C98.0036 131.49 114.462 149.816 127.263 185.751C127.436 186.24 127.319 186.917 128.007 186.769Z" fill="black"/>
</svg>
