<svg width="182" height="27" viewBox="0 0 182 27" fill="none" xmlns="http://www.w3.org/2000/svg">
<path d="M25.7233 0.00839684C25.9745 -0.0372184 26.1428 0.108075 26.2342 0.321509C26.4516 0.826656 26.6362 1.6314 26.7948 2.18385C28.6838 8.76935 29.1168 16.3004 22.2959 20.1337C19.5347 21.6852 15.8121 21.7235 14.7581 25.3418C14.5887 25.9241 14.6356 27.3229 13.6713 26.9321C13.2525 26.7626 13.4066 26.2248 13.3676 25.8835C13.1 23.5397 9.85783 23.3037 8.03829 22.6398C0.792888 19.9963 -1.38796 13.8963 0.826196 6.71441C0.930073 6.37708 1.33993 5.06606 1.54543 4.89824C1.68713 4.7828 1.84238 4.74506 2.01231 4.82897C3.32658 5.94739 4.78932 6.88391 6.3757 7.57209C7.6273 8.11553 8.95737 8.46637 10.1847 9.065C11.0998 7.14353 12.6772 5.54868 14.5216 4.49503C17.6158 2.72786 21.4666 2.67492 24.5129 0.833413C24.7529 0.68812 25.5652 0.0371176 25.7227 0.00839684H25.7233Z" fill="#A67134"/>
<path d="M25.7233 0.00839684C25.9745 -0.0372184 26.1428 0.108075 26.2342 0.321509C26.4516 0.826656 26.6362 1.6314 26.7948 2.18385C28.6838 8.76935 29.1168 16.3004 22.2959 20.1337C19.5347 21.6852 15.8121 21.7235 14.7581 25.3418C14.5887 25.9241 14.6356 27.3229 13.6713 26.9321C13.2525 26.7626 13.4066 26.2248 13.3676 25.8835C13.1 23.5397 9.85783 23.3037 8.03829 22.6398C0.792888 19.9963 -1.38796 13.8963 0.826196 6.71441C0.930073 6.37708 1.33993 5.06606 1.54543 4.89824C1.68713 4.7828 1.84238 4.74506 2.01231 4.82897C3.32658 5.94739 4.78932 6.88391 6.3757 7.57209C7.6273 8.11553 8.95737 8.46637 10.1847 9.065C11.0998 7.14353 12.6772 5.54868 14.5216 4.49503C17.6158 2.72786 21.4666 2.67492 24.5129 0.833413C24.7529 0.68812 25.5652 0.0371176 25.7227 0.00839684H25.7233ZM15.2385 13.1208C15.5914 12.7058 15.855 12.2232 16.1994 11.7991C17.8479 9.76781 20.2941 8.56717 22.1271 6.73074C23.4493 5.4062 24.4062 3.79728 25.0041 2.02673C21.6936 4.02367 17.534 3.9651 14.3166 6.14788C13.0475 7.00893 11.9704 8.16396 11.2918 9.54593C12.8657 10.3833 14.4905 11.4359 15.2385 13.1208ZM25.9073 3.32198C25.7335 3.29439 25.8193 3.36985 25.7939 3.46052C25.2288 5.50645 22.9948 7.71062 21.361 9.00869C19.7995 10.2493 18.0901 11.2298 16.852 12.8454C16.6499 13.1096 15.8844 14.2437 15.859 14.5062C15.8336 14.7686 16.0498 15.463 16.0831 15.7969C16.2457 17.4126 15.8895 19.1049 15.4214 20.6541C15.2018 21.3817 14.9133 22.0873 14.6729 22.807C16.406 20.5381 19.3106 20.3325 21.654 19.0435C26.0315 16.636 27.234 12.2023 26.6898 7.4679C26.5289 6.06791 26.1507 4.70508 25.9062 3.32142L25.9073 3.32198ZM14.1648 20.6671C14.7028 18.7715 15.1533 16.7988 14.6124 14.8435C13.4907 10.7866 8.64969 9.97055 5.31999 8.45736C4.2084 7.95221 3.1702 7.31078 2.08457 6.75777C1.88754 7.52534 1.64084 8.28504 1.48897 9.065C0.329958 15.0367 2.88453 19.4292 8.54695 21.4572C9.96227 21.964 11.4719 22.2168 12.7918 22.967C12.8866 23.021 13.393 23.4023 13.4314 23.3702C13.0786 21.2111 12.47 19.1477 11.1952 17.3512C9.67209 15.2045 7.62843 13.6862 5.58138 12.0829C5.41371 11.7377 5.59211 11.4201 5.99463 11.5006C6.23795 11.5491 7.04412 12.106 7.30777 12.2755C10.8447 14.5501 12.6659 16.578 14.0823 20.5544C14.1015 20.6085 14.0885 20.6834 14.1648 20.6671Z" fill="black"/>
<mask id="path-3-outside-1_1382_1844" maskUnits="userSpaceOnUse" x="32" y="3.812" width="150" height="20" fill="black">
<rect fill="white" x="32" y="3.812" width="150" height="20"/>
<path d="M38.376 21.9V8.268H33V5.1H47.64V8.268H42.264V21.9H38.376Z"/>
<path d="M53.4358 21.9L47.9398 5.1H51.9718L56.7478 19.98H54.7318L59.7238 5.1H63.3238L68.1238 19.98H66.1798L71.0758 5.1H74.7958L69.2998 21.9H65.1238L60.8758 8.844H61.9798L57.6118 21.9H53.4358Z"/>
<path d="M84.9388 22.188C83.6108 22.188 82.3788 21.972 81.2428 21.54C80.1228 21.108 79.1468 20.5 78.3148 19.716C77.4988 18.932 76.8588 18.012 76.3948 16.956C75.9468 15.9 75.7228 14.748 75.7228 13.5C75.7228 12.252 75.9468 11.1 76.3948 10.044C76.8588 8.988 77.5068 8.068 78.3388 7.284C79.1708 6.5 80.1468 5.892 81.2668 5.46C82.3868 5.028 83.6028 4.812 84.9148 4.812C86.2428 4.812 87.4588 5.028 88.5628 5.46C89.6828 5.892 90.6508 6.5 91.4668 7.284C92.2988 8.068 92.9468 8.988 93.4108 10.044C93.8748 11.084 94.1068 12.236 94.1068 13.5C94.1068 14.748 93.8748 15.908 93.4108 16.98C92.9468 18.036 92.2988 18.956 91.4668 19.74C90.6508 20.508 89.6828 21.108 88.5628 21.54C87.4588 21.972 86.2508 22.188 84.9388 22.188ZM84.9148 18.876C85.6668 18.876 86.3548 18.748 86.9788 18.492C87.6188 18.236 88.1788 17.868 88.6588 17.388C89.1388 16.908 89.5068 16.34 89.7628 15.684C90.0348 15.028 90.1708 14.3 90.1708 13.5C90.1708 12.7 90.0348 11.972 89.7628 11.316C89.5068 10.66 89.1388 10.092 88.6588 9.612C88.1948 9.132 87.6428 8.764 87.0028 8.508C86.3628 8.252 85.6668 8.124 84.9148 8.124C84.1628 8.124 83.4668 8.252 82.8268 8.508C82.2028 8.764 81.6508 9.132 81.1708 9.612C80.6908 10.092 80.3148 10.66 80.0428 11.316C79.7868 11.972 79.6588 12.7 79.6588 13.5C79.6588 14.284 79.7868 15.012 80.0428 15.684C80.3148 16.34 80.6828 16.908 81.1468 17.388C81.6268 17.868 82.1868 18.236 82.8268 18.492C83.4668 18.748 84.1628 18.876 84.9148 18.876Z"/>
<path d="M103.826 21.9V5.1H107.714V18.732H116.138V21.9H103.826Z"/>
<path d="M121.886 11.868H129.974V14.892H121.886V11.868ZM122.174 18.78H131.318V21.9H118.31V5.1H131.006V8.22H122.174V18.78Z"/>
<path d="M132.204 21.9L139.692 5.1H143.532L151.044 21.9H146.964L140.82 7.068H142.356L136.188 21.9H132.204ZM135.948 18.3L136.98 15.348H145.62L146.676 18.3H135.948Z"/>
<path d="M156.387 12.66H164.451V15.78H156.387V12.66ZM156.675 21.9H152.787V5.1H165.483V8.22H156.675V21.9Z"/>
<path d="M173.635 22.188C172.291 22.188 171.003 22.012 169.771 21.66C168.539 21.292 167.547 20.82 166.795 20.244L168.115 17.316C168.835 17.828 169.683 18.252 170.659 18.588C171.651 18.908 172.651 19.068 173.659 19.068C174.427 19.068 175.043 18.996 175.507 18.852C175.987 18.692 176.339 18.476 176.563 18.204C176.787 17.932 176.899 17.62 176.899 17.268C176.899 16.82 176.723 16.468 176.371 16.212C176.019 15.94 175.555 15.724 174.979 15.564C174.403 15.388 173.763 15.228 173.059 15.084C172.371 14.924 171.675 14.732 170.971 14.508C170.283 14.284 169.651 13.996 169.075 13.644C168.499 13.292 168.027 12.828 167.659 12.252C167.307 11.676 167.131 10.94 167.131 10.044C167.131 9.084 167.387 8.212 167.899 7.428C168.427 6.628 169.211 5.996 170.251 5.532C171.307 5.052 172.627 4.812 174.211 4.812C175.267 4.812 176.307 4.94 177.331 5.196C178.355 5.436 179.259 5.804 180.043 6.3L178.843 9.252C178.059 8.804 177.275 8.476 176.491 8.268C175.707 8.044 174.939 7.932 174.187 7.932C173.435 7.932 172.819 8.02 172.339 8.196C171.859 8.372 171.515 8.604 171.307 8.892C171.099 9.164 170.995 9.484 170.995 9.852C170.995 10.284 171.171 10.636 171.523 10.908C171.875 11.164 172.339 11.372 172.915 11.532C173.491 11.692 174.123 11.852 174.811 12.012C175.515 12.172 176.211 12.356 176.899 12.564C177.603 12.772 178.243 13.052 178.819 13.404C179.395 13.756 179.859 14.22 180.211 14.796C180.579 15.372 180.763 16.1 180.763 16.98C180.763 17.924 180.499 18.788 179.971 19.572C179.443 20.356 178.651 20.988 177.595 21.468C176.555 21.948 175.235 22.188 173.635 22.188Z"/>
</mask>
<path d="M38.376 21.9V8.268H33V5.1H47.64V8.268H42.264V21.9H38.376Z" fill="#A67134"/>
<path d="M53.4358 21.9L47.9398 5.1H51.9718L56.7478 19.98H54.7318L59.7238 5.1H63.3238L68.1238 19.98H66.1798L71.0758 5.1H74.7958L69.2998 21.9H65.1238L60.8758 8.844H61.9798L57.6118 21.9H53.4358Z" fill="#A67134"/>
<path d="M84.9388 22.188C83.6108 22.188 82.3788 21.972 81.2428 21.54C80.1228 21.108 79.1468 20.5 78.3148 19.716C77.4988 18.932 76.8588 18.012 76.3948 16.956C75.9468 15.9 75.7228 14.748 75.7228 13.5C75.7228 12.252 75.9468 11.1 76.3948 10.044C76.8588 8.988 77.5068 8.068 78.3388 7.284C79.1708 6.5 80.1468 5.892 81.2668 5.46C82.3868 5.028 83.6028 4.812 84.9148 4.812C86.2428 4.812 87.4588 5.028 88.5628 5.46C89.6828 5.892 90.6508 6.5 91.4668 7.284C92.2988 8.068 92.9468 8.988 93.4108 10.044C93.8748 11.084 94.1068 12.236 94.1068 13.5C94.1068 14.748 93.8748 15.908 93.4108 16.98C92.9468 18.036 92.2988 18.956 91.4668 19.74C90.6508 20.508 89.6828 21.108 88.5628 21.54C87.4588 21.972 86.2508 22.188 84.9388 22.188ZM84.9148 18.876C85.6668 18.876 86.3548 18.748 86.9788 18.492C87.6188 18.236 88.1788 17.868 88.6588 17.388C89.1388 16.908 89.5068 16.34 89.7628 15.684C90.0348 15.028 90.1708 14.3 90.1708 13.5C90.1708 12.7 90.0348 11.972 89.7628 11.316C89.5068 10.66 89.1388 10.092 88.6588 9.612C88.1948 9.132 87.6428 8.764 87.0028 8.508C86.3628 8.252 85.6668 8.124 84.9148 8.124C84.1628 8.124 83.4668 8.252 82.8268 8.508C82.2028 8.764 81.6508 9.132 81.1708 9.612C80.6908 10.092 80.3148 10.66 80.0428 11.316C79.7868 11.972 79.6588 12.7 79.6588 13.5C79.6588 14.284 79.7868 15.012 80.0428 15.684C80.3148 16.34 80.6828 16.908 81.1468 17.388C81.6268 17.868 82.1868 18.236 82.8268 18.492C83.4668 18.748 84.1628 18.876 84.9148 18.876Z" fill="#A67134"/>
<path d="M103.826 21.9V5.1H107.714V18.732H116.138V21.9H103.826Z" fill="#A67134"/>
<path d="M121.886 11.868H129.974V14.892H121.886V11.868ZM122.174 18.78H131.318V21.9H118.31V5.1H131.006V8.22H122.174V18.78Z" fill="#A67134"/>
<path d="M132.204 21.9L139.692 5.1H143.532L151.044 21.9H146.964L140.82 7.068H142.356L136.188 21.9H132.204ZM135.948 18.3L136.98 15.348H145.62L146.676 18.3H135.948Z" fill="#A67134"/>
<path d="M156.387 12.66H164.451V15.78H156.387V12.66ZM156.675 21.9H152.787V5.1H165.483V8.22H156.675V21.9Z" fill="#A67134"/>
<path d="M173.635 22.188C172.291 22.188 171.003 22.012 169.771 21.66C168.539 21.292 167.547 20.82 166.795 20.244L168.115 17.316C168.835 17.828 169.683 18.252 170.659 18.588C171.651 18.908 172.651 19.068 173.659 19.068C174.427 19.068 175.043 18.996 175.507 18.852C175.987 18.692 176.339 18.476 176.563 18.204C176.787 17.932 176.899 17.62 176.899 17.268C176.899 16.82 176.723 16.468 176.371 16.212C176.019 15.94 175.555 15.724 174.979 15.564C174.403 15.388 173.763 15.228 173.059 15.084C172.371 14.924 171.675 14.732 170.971 14.508C170.283 14.284 169.651 13.996 169.075 13.644C168.499 13.292 168.027 12.828 167.659 12.252C167.307 11.676 167.131 10.94 167.131 10.044C167.131 9.084 167.387 8.212 167.899 7.428C168.427 6.628 169.211 5.996 170.251 5.532C171.307 5.052 172.627 4.812 174.211 4.812C175.267 4.812 176.307 4.94 177.331 5.196C178.355 5.436 179.259 5.804 180.043 6.3L178.843 9.252C178.059 8.804 177.275 8.476 176.491 8.268C175.707 8.044 174.939 7.932 174.187 7.932C173.435 7.932 172.819 8.02 172.339 8.196C171.859 8.372 171.515 8.604 171.307 8.892C171.099 9.164 170.995 9.484 170.995 9.852C170.995 10.284 171.171 10.636 171.523 10.908C171.875 11.164 172.339 11.372 172.915 11.532C173.491 11.692 174.123 11.852 174.811 12.012C175.515 12.172 176.211 12.356 176.899 12.564C177.603 12.772 178.243 13.052 178.819 13.404C179.395 13.756 179.859 14.22 180.211 14.796C180.579 15.372 180.763 16.1 180.763 16.98C180.763 17.924 180.499 18.788 179.971 19.572C179.443 20.356 178.651 20.988 177.595 21.468C176.555 21.948 175.235 22.188 173.635 22.188Z" fill="#A67134"/>
<path d="M38.376 21.9V8.268H33V5.1H47.64V8.268H42.264V21.9H38.376Z" stroke="black" stroke-width="2" mask="url(#path-3-outside-1_1382_1844)"/>
<path d="M53.4358 21.9L47.9398 5.1H51.9718L56.7478 19.98H54.7318L59.7238 5.1H63.3238L68.1238 19.98H66.1798L71.0758 5.1H74.7958L69.2998 21.9H65.1238L60.8758 8.844H61.9798L57.6118 21.9H53.4358Z" stroke="black" stroke-width="2" mask="url(#path-3-outside-1_1382_1844)"/>
<path d="M84.9388 22.188C83.6108 22.188 82.3788 21.972 81.2428 21.54C80.1228 21.108 79.1468 20.5 78.3148 19.716C77.4988 18.932 76.8588 18.012 76.3948 16.956C75.9468 15.9 75.7228 14.748 75.7228 13.5C75.7228 12.252 75.9468 11.1 76.3948 10.044C76.8588 8.988 77.5068 8.068 78.3388 7.284C79.1708 6.5 80.1468 5.892 81.2668 5.46C82.3868 5.028 83.6028 4.812 84.9148 4.812C86.2428 4.812 87.4588 5.028 88.5628 5.46C89.6828 5.892 90.6508 6.5 91.4668 7.284C92.2988 8.068 92.9468 8.988 93.4108 10.044C93.8748 11.084 94.1068 12.236 94.1068 13.5C94.1068 14.748 93.8748 15.908 93.4108 16.98C92.9468 18.036 92.2988 18.956 91.4668 19.74C90.6508 20.508 89.6828 21.108 88.5628 21.54C87.4588 21.972 86.2508 22.188 84.9388 22.188ZM84.9148 18.876C85.6668 18.876 86.3548 18.748 86.9788 18.492C87.6188 18.236 88.1788 17.868 88.6588 17.388C89.1388 16.908 89.5068 16.34 89.7628 15.684C90.0348 15.028 90.1708 14.3 90.1708 13.5C90.1708 12.7 90.0348 11.972 89.7628 11.316C89.5068 10.66 89.1388 10.092 88.6588 9.612C88.1948 9.132 87.6428 8.764 87.0028 8.508C86.3628 8.252 85.6668 8.124 84.9148 8.124C84.1628 8.124 83.4668 8.252 82.8268 8.508C82.2028 8.764 81.6508 9.132 81.1708 9.612C80.6908 10.092 80.3148 10.66 80.0428 11.316C79.7868 11.972 79.6588 12.7 79.6588 13.5C79.6588 14.284 79.7868 15.012 80.0428 15.684C80.3148 16.34 80.6828 16.908 81.1468 17.388C81.6268 17.868 82.1868 18.236 82.8268 18.492C83.4668 18.748 84.1628 18.876 84.9148 18.876Z" stroke="black" stroke-width="2" mask="url(#path-3-outside-1_1382_1844)"/>
<path d="M103.826 21.9V5.1H107.714V18.732H116.138V21.9H103.826Z" stroke="black" stroke-width="2" mask="url(#path-3-outside-1_1382_1844)"/>
<path d="M121.886 11.868H129.974V14.892H121.886V11.868ZM122.174 18.78H131.318V21.9H118.31V5.1H131.006V8.22H122.174V18.78Z" stroke="black" stroke-width="2" mask="url(#path-3-outside-1_1382_1844)"/>
<path d="M132.204 21.9L139.692 5.1H143.532L151.044 21.9H146.964L140.82 7.068H142.356L136.188 21.9H132.204ZM135.948 18.3L136.98 15.348H145.62L146.676 18.3H135.948Z" stroke="black" stroke-width="2" mask="url(#path-3-outside-1_1382_1844)"/>
<path d="M156.387 12.66H164.451V15.78H156.387V12.66ZM156.675 21.9H152.787V5.1H165.483V8.22H156.675V21.9Z" stroke="black" stroke-width="2" mask="url(#path-3-outside-1_1382_1844)"/>
<path d="M173.635 22.188C172.291 22.188 171.003 22.012 169.771 21.66C168.539 21.292 167.547 20.82 166.795 20.244L168.115 17.316C168.835 17.828 169.683 18.252 170.659 18.588C171.651 18.908 172.651 19.068 173.659 19.068C174.427 19.068 175.043 18.996 175.507 18.852C175.987 18.692 176.339 18.476 176.563 18.204C176.787 17.932 176.899 17.62 176.899 17.268C176.899 16.82 176.723 16.468 176.371 16.212C176.019 15.94 175.555 15.724 174.979 15.564C174.403 15.388 173.763 15.228 173.059 15.084C172.371 14.924 171.675 14.732 170.971 14.508C170.283 14.284 169.651 13.996 169.075 13.644C168.499 13.292 168.027 12.828 167.659 12.252C167.307 11.676 167.131 10.94 167.131 10.044C167.131 9.084 167.387 8.212 167.899 7.428C168.427 6.628 169.211 5.996 170.251 5.532C171.307 5.052 172.627 4.812 174.211 4.812C175.267 4.812 176.307 4.94 177.331 5.196C178.355 5.436 179.259 5.804 180.043 6.3L178.843 9.252C178.059 8.804 177.275 8.476 176.491 8.268C175.707 8.044 174.939 7.932 174.187 7.932C173.435 7.932 172.819 8.02 172.339 8.196C171.859 8.372 171.515 8.604 171.307 8.892C171.099 9.164 170.995 9.484 170.995 9.852C170.995 10.284 171.171 10.636 171.523 10.908C171.875 11.164 172.339 11.372 172.915 11.532C173.491 11.692 174.123 11.852 174.811 12.012C175.515 12.172 176.211 12.356 176.899 12.564C177.603 12.772 178.243 13.052 178.819 13.404C179.395 13.756 179.859 14.22 180.211 14.796C180.579 15.372 180.763 16.1 180.763 16.98C180.763 17.924 180.499 18.788 179.971 19.572C179.443 20.356 178.651 20.988 177.595 21.468C176.555 21.948 175.235 22.188 173.635 22.188Z" stroke="black" stroke-width="2" mask="url(#path-3-outside-1_1382_1844)"/>
</svg>
